/* XPM */
static char * lens_xpm[] = {
"19 18 165 2",
"  	c None",
". 	c #ADB8C0",
"+ 	c #8E9EA8",
"@ 	c #7B8D96",
"# 	c #5E737B",
"$ 	c #74868F",
"% 	c #A7AFB8",
"& 	c #ACAEB0",
"* 	c #71838E",
"= 	c #C1CFD3",
"- 	c #D8DFE1",
"; 	c #CFD6D8",
"> 	c #CAD4D5",
", 	c #C1D1D3",
"' 	c #AFBCC0",
") 	c #878E96",
"! 	c #5D717F",
"~ 	c #E2E9EB",
"{ 	c #F8F9F9",
"] 	c #CCD2D5",
"^ 	c #88959E",
"/ 	c #ADBABD",
"( 	c #D1DDDB",
"_ 	c #CBDBDA",
": 	c #C8D4D6",
"< 	c #848F97",
"[ 	c #8B97A2",
"} 	c #C3D0D3",
"| 	c #F9F9FA",
"1 	c #F1F2F3",
"2 	c #C1C8CC",
"3 	c #73838E",
"4 	c #9DABAF",
"5 	c #C6D4D4",
"6 	c #CADBDA",
"7 	c #C8DAD9",
"8 	c #ABBCC1",
"9 	c #A0A8B0",
"0 	c #5F737F",
"a 	c #E0E6E6",
"b 	c #BDC4CA",
"c 	c #B9C1C6",
"d 	c #929FA6",
"e 	c #5C6E7B",
"f 	c #6E8089",
"g 	c #8899A0",
"h 	c #91A4A9",
"i 	c #BFD0D1",
"j 	c #BFD1D3",
"k 	c #859199",
"l 	c #6D8189",
"m 	c #CAD5D5",
"n 	c #798993",
"o 	c #667782",
"p 	c #566976",
"q 	c #405665",
"r 	c #465C69",
"s 	c #4D626F",
"t 	c #596E7A",
"u 	c #ACBEC1",
"v 	c #C7D5D5",
"w 	c #7F8A90",
"x 	c #6F8287",
"y 	c #CBD7D6",
"z 	c #B1BDBF",
"A 	c #A2B0B4",
"B 	c #788890",
"C 	c #485D6B",
"D 	c #6F818A",
"E 	c #8EA0A5",
"F 	c #96A8AE",
"G 	c #BECDCC",
"H 	c #C7D5D4",
"I 	c #7D888F",
"J 	c #5E6E7A",
"K 	c #BED2D3",
"L 	c #D2E0DD",
"M 	c #CBD8D7",
"N 	c #94A5AA",
"O 	c #8799A0",
"P 	c #BACACB",
"Q 	c #CEDBDC",
"R 	c #D8E3E2",
"S 	c #C3D2D4",
"T 	c #7B8991",
"U 	c #78828D",
"V 	c #BCCACC",
"W 	c #CCDDDB",
"X 	c #CDDDDC",
"Y 	c #9BAEB3",
"Z 	c #5C717D",
"` 	c #91A2A8",
" .	c #CFDADC",
"..	c #EDF3F3",
"+.	c #E7EDED",
"@.	c #91A4AB",
"#.	c #707D87",
"$.	c #646D76",
"%.	c #E0E7E9",
"&.	c #CBDCDC",
"*.	c #C8D8D9",
"=.	c #B6C7C9",
"-.	c #C4D2D2",
";.	c #DFE6E6",
">.	c #EAEDEE",
",.	c #A4B6BC",
"'.	c #505D6B",
").	c #212223",
"!.	c #868E95",
"~.	c #737A82",
"{.	c #AFBEC3",
"].	c #B7CCCE",
"^.	c #C1D1D2",
"/.	c #BFCECD",
"(.	c #B9C5C8",
"_.	c #8FA0A9",
":.	c #334250",
"<.	c #070101",
"[.	c #783C36",
"}.	c #D98577",
"|.	c #C6968F",
"1.	c #7E8790",
"2.	c #79848B",
"3.	c #7F8A8D",
"4.	c #6A757A",
"5.	c #57666E",
"6.	c #666A78",
"7.	c #37393D",
"8.	c #521212",
"9.	c #A03B32",
"0.	c #D56455",
"a.	c #EF7D68",
"b.	c #BD8980",
"c.	c #713E43",
"d.	c #9E2521",
"e.	c #BC372E",
"f.	c #DA4F3B",
"g.	c #EC7059",
"h.	c #B8847C",
"i.	c #7C464A",
"j.	c #941A1C",
"k.	c #B32921",
"l.	c #D64936",
"m.	c #EC715A",
"n.	c #B38179",
"o.	c #76454D",
"p.	c #911619",
"q.	c #B42A21",
"r.	c #D74A38",
"s.	c #EC715B",
"t.	c #B08078",
"u.	c #76464D",
"v.	c #90161A",
"w.	c #B22921",
"x.	c #D24937",
"y.	c #DD715E",
"z.	c #766B6E",
"A.	c #7E5057",
"B.	c #8B171B",
"C.	c #9F231C",
"D.	c #8F4D44",
"E.	c #585255",
"F.	c #79696F",
"G.	c #7A5F61",
"H.	c #716C6E",
"      . + @ # $ %                     ",
"  & * = - ; > , ' )                   ",
"  ! ~ { ] ^ / ( _ : <                 ",
"[ } | 1 2 3 4 5 6 7 8 9               ",
"0 a b c d e f g h i j k               ",
"l m n o p q r s t u v w               ",
"x y z A B C D E F G H I               ",
"J K L M N s O P Q R S T               ",
"U V W X Y Z `  ...+.@.#.              ",
"  $.%.&.*.=.-.;.>.,.'.).!.            ",
"    ~.{.].^./.(._.:.<.[.}.|.          ",
"      1.2.3.4.5.6.7.8.9.0.a.b.        ",
"                    c.d.e.f.g.h.      ",
"                      i.j.k.l.m.n.    ",
"                        o.p.q.r.s.t.  ",
"                          u.v.w.x.y.z.",
"                            A.B.C.D.E.",
"                              F.G.H.  "};
